<svg width="20" height="24" viewBox="0 0 20 24" fill="none" xmlns="http://www.w3.org/2000/svg">
<path fill-rule="evenodd" clip-rule="evenodd" d="M2.07298 14.5579C1.52069 14.5579 1.06788 15.0068 1.12043 15.5566C1.57395 20.3019 5.22275 24 9.65677 24C14.0908 24 17.7396 20.3019 18.1931 15.5566C18.2457 15.0068 17.7928 14.5579 17.2406 14.5579H2.07298Z" fill="#FFC329"/>
<path d="M9.66772 9.01298C9.90294 9.01295 11.4301 7.41151 12.0157 5.06997C12.4793 3.21657 12.4046 0 9.66772 0C7.25681 0.0202087 6.68886 2.54509 7.32038 5.06997C7.90605 7.41151 9.4422 9.01298 9.66772 9.01298Z" fill="#025B4B"/>
<path d="M8.20175 12.9137C8.36805 12.7474 8.31553 10.5351 7.07393 8.46529C6.09117 6.82695 3.76388 4.60532 1.82861 6.54059C0.138134 8.25965 1.52189 10.4466 3.7538 11.7854C5.82365 13.027 8.04229 13.0732 8.20175 12.9137Z" fill="#025B4B"/>
<path d="M11.1209 12.9228C11.2872 13.0891 13.4995 13.0366 15.5693 11.795C17.2077 10.8122 19.4293 8.48495 17.494 6.54968C15.775 4.8592 13.588 6.24296 12.2492 8.47487C11.0076 10.5447 10.9614 12.7634 11.1209 12.9228Z" fill="#025B4B"/>
</svg>
